<svg width="375" height="36" viewBox="0 0 375 36" fill="none" xmlns="http://www.w3.org/2000/svg">
<path d="M0.739746 36H12.9452C18.7329 36 23.4247 31.3081 23.4247 25.5205H11.2192C5.43156 25.5205 0.739746 30.2123 0.739746 36Z" fill="#F22BB2"/>
<path d="M1.28564 10.4795V25.8904C7.07329 25.8904 11.7651 21.1986 11.7651 15.411V0C5.97746 0 1.28564 4.69181 1.28564 10.4795Z" fill="#8C30F5"/>
<path d="M35.2604 0H23.0549C17.2673 0 12.5754 4.69181 12.5754 10.4795H24.7809C30.5686 10.4795 35.2604 5.78764 35.2604 0Z" fill="#FE9A22"/>
<path d="M35.2602 24.9041V9.49316C29.4726 9.49316 24.7808 14.185 24.7808 19.9726V35.3836C30.5684 35.3836 35.2602 30.6918 35.2602 24.9041Z" fill="#2EC5CE"/>
<path d="M65.7301 15.0597H68.4318C67.8438 11.6591 64.9375 9.30682 61.1705 9.30682C56.6534 9.30682 53.3551 12.7074 53.3551 18.2812C53.3551 23.804 56.5597 27.2386 61.2898 27.2386C65.5256 27.2386 68.5511 24.4602 68.5511 20.054V18.0682H61.6903V20.2415H66.0028C65.9432 23.054 64.0852 24.8352 61.2898 24.8352C58.2131 24.8352 55.9716 22.5085 55.9716 18.2642C55.9716 14.0369 58.2301 11.7102 61.1875 11.7102C63.5057 11.7102 65.0739 12.9886 65.7301 15.0597ZM77.3317 27.2642C80.1868 27.2642 82.2067 25.858 82.7862 23.7273L80.3743 23.2926C79.9141 24.5284 78.8061 25.1591 77.3572 25.1591C75.1754 25.1591 73.7095 23.7443 73.6413 21.2216H82.9482V20.3182C82.9482 15.5881 80.1186 13.7386 77.1527 13.7386C73.505 13.7386 71.1016 16.517 71.1016 20.5398C71.1016 24.6051 73.4709 27.2642 77.3317 27.2642ZM73.6499 19.3125C73.7521 17.4545 75.0987 15.8438 77.1697 15.8438C79.147 15.8438 80.4425 17.3097 80.451 19.3125H73.6499ZM91.8864 13.9091H89.2017V10.7727H86.6534V13.9091H84.7358V15.9545H86.6534V23.6847C86.6449 26.0625 88.4602 27.2131 90.4716 27.1705C91.2812 27.1619 91.8267 27.0085 92.125 26.8977L91.6648 24.7926C91.4943 24.8267 91.179 24.9034 90.7699 24.9034C89.9432 24.9034 89.2017 24.6307 89.2017 23.1562V15.9545H91.8864V13.9091ZM100.816 13.9091H98.1314V10.7727H95.5831V13.9091H93.6655V15.9545H95.5831V23.6847C95.5746 26.0625 97.3899 27.2131 99.4013 27.1705C100.211 27.1619 100.756 27.0085 101.055 26.8977L100.594 24.7926C100.424 24.8267 100.109 24.9034 99.6996 24.9034C98.8729 24.9034 98.1314 24.6307 98.1314 23.1562V15.9545H100.816V13.9091ZM103.635 27H106.183V13.9091H103.635V27ZM104.922 11.8892C105.8 11.8892 106.533 11.2074 106.533 10.3722C106.533 9.53693 105.8 8.84659 104.922 8.84659C104.036 8.84659 103.311 9.53693 103.311 10.3722C103.311 11.2074 104.036 11.8892 104.922 11.8892ZM112.16 19.2273C112.16 17.1392 113.438 15.946 115.211 15.946C116.941 15.946 117.989 17.0795 117.989 18.9801V27H120.538V18.6733C120.538 15.4347 118.756 13.7386 116.08 13.7386C114.112 13.7386 112.825 14.6506 112.219 16.0398H112.058V13.9091H109.612V27H112.16V19.2273ZM129.444 32.1818C132.776 32.1818 135.35 30.6562 135.35 27.2898V13.9091H132.853V16.0312H132.665C132.214 15.2216 131.31 13.7386 128.873 13.7386C125.711 13.7386 123.384 16.2358 123.384 20.4034C123.384 24.5795 125.762 26.804 128.856 26.804C131.259 26.804 132.188 25.4489 132.648 24.6136H132.81V27.1875C132.81 29.2415 131.404 30.1278 129.469 30.1278C127.347 30.1278 126.521 29.0625 126.069 28.3125L123.879 29.2159C124.569 30.8182 126.316 32.1818 129.444 32.1818ZM129.418 24.6903C127.143 24.6903 125.958 22.9432 125.958 20.3693C125.958 17.8551 127.117 15.9034 129.418 15.9034C131.643 15.9034 132.836 17.7188 132.836 20.3693C132.836 23.071 131.617 24.6903 129.418 24.6903ZM154.844 14.1307H157.384C157.307 11.3352 154.835 9.30682 151.29 9.30682C147.787 9.30682 145.102 11.3097 145.102 14.3182C145.102 16.7472 146.841 18.1705 149.645 18.929L151.707 19.4915C153.574 19.9858 155.014 20.5994 155.014 22.1506C155.014 23.8551 153.386 24.9801 151.145 24.9801C149.116 24.9801 147.429 24.0767 147.276 22.1761H144.634C144.804 25.3381 147.25 27.2898 151.162 27.2898C155.261 27.2898 157.622 25.1335 157.622 22.1761C157.622 19.0312 154.818 17.8125 152.602 17.267L150.898 16.8239C149.534 16.4744 147.719 15.8352 147.727 14.1648C147.727 12.6818 149.082 11.5824 151.23 11.5824C153.233 11.5824 154.656 12.5199 154.844 14.1307ZM166.675 13.9091H163.991V10.7727H161.442V13.9091H159.525V15.9545H161.442V23.6847C161.434 26.0625 163.249 27.2131 165.261 27.1705C166.07 27.1619 166.616 27.0085 166.914 26.8977L166.454 24.7926C166.283 24.8267 165.968 24.9034 165.559 24.9034C164.732 24.9034 163.991 24.6307 163.991 23.1562V15.9545H166.675V13.9091ZM173.304 27.2898C175.469 27.2898 176.688 26.1903 177.173 25.2102H177.276V27H179.764V18.3068C179.764 14.4972 176.764 13.7386 174.685 13.7386C172.315 13.7386 170.134 14.6932 169.281 17.0795L171.676 17.625C172.051 16.696 173.006 15.8011 174.719 15.8011C176.364 15.8011 177.207 16.6619 177.207 18.1449V18.2045C177.207 19.1335 176.253 19.1165 173.901 19.3892C171.42 19.679 168.881 20.3267 168.881 23.3011C168.881 25.875 170.815 27.2898 173.304 27.2898ZM173.858 25.2443C172.418 25.2443 171.378 24.5966 171.378 23.3352C171.378 21.9716 172.588 21.4858 174.062 21.2898C174.889 21.179 176.849 20.9574 177.216 20.5909V22.2784C177.216 23.8295 175.98 25.2443 173.858 25.2443ZM183.158 27H185.707V19.0057C185.707 17.2926 187.028 16.0568 188.835 16.0568C189.363 16.0568 189.96 16.1506 190.164 16.2102V13.7727C189.908 13.7386 189.406 13.7131 189.082 13.7131C187.548 13.7131 186.235 14.5824 185.758 15.9886H185.621V13.9091H183.158V27ZM199.254 13.9091H196.569V10.7727H194.021V13.9091H192.103V15.9545H194.021V23.6847C194.012 26.0625 195.827 27.2131 197.839 27.1705C198.648 27.1619 199.194 27.0085 199.492 26.8977L199.032 24.7926C198.862 24.8267 198.546 24.9034 198.137 24.9034C197.31 24.9034 196.569 24.6307 196.569 23.1562V15.9545H199.254V13.9091ZM207.574 27.2642C210.429 27.2642 212.449 25.858 213.028 23.7273L210.616 23.2926C210.156 24.5284 209.048 25.1591 207.599 25.1591C205.418 25.1591 203.952 23.7443 203.884 21.2216H213.19V20.3182C213.19 15.5881 210.361 13.7386 207.395 13.7386C203.747 13.7386 201.344 16.517 201.344 20.5398C201.344 24.6051 203.713 27.2642 207.574 27.2642ZM203.892 19.3125C203.994 17.4545 205.341 15.8438 207.412 15.8438C209.389 15.8438 210.685 17.3097 210.693 19.3125H203.892ZM220.918 27.2557C223.305 27.2557 224.242 25.7983 224.702 24.9631H224.915V27H227.404V9.54545H224.856V16.0312H224.702C224.242 15.2216 223.373 13.7386 220.935 13.7386C217.773 13.7386 215.447 16.2358 215.447 20.4801C215.447 24.7159 217.739 27.2557 220.918 27.2557ZM221.481 25.0824C219.205 25.0824 218.021 23.0795 218.021 20.4545C218.021 17.8551 219.18 15.9034 221.481 15.9034C223.705 15.9034 224.898 17.7188 224.898 20.4545C224.898 23.2074 223.68 25.0824 221.481 25.0824Z" fill="#9CA3AF"/>
<path d="M250.588 27.3153L258.54 19.3636L250.588 11.4119L249.054 12.9375L254.381 18.2557H241V20.4716H254.381L249.054 25.7983L250.588 27.3153Z" fill="#9CA3AF"/>
<path d="M274.335 27H276.994L280.668 13.9261H280.804L284.477 27H287.128L291.977 9.54545H289.199L285.807 23.071H285.645L282.108 9.54545H279.364L275.827 23.0625H275.665L272.264 9.54545H269.494L274.335 27ZM298.527 27.2642C301.382 27.2642 303.402 25.858 303.982 23.7273L301.57 23.2926C301.109 24.5284 300.001 25.1591 298.553 25.1591C296.371 25.1591 294.905 23.7443 294.837 21.2216H304.143V20.3182C304.143 15.5881 301.314 13.7386 298.348 13.7386C294.7 13.7386 292.297 16.517 292.297 20.5398C292.297 24.6051 294.666 27.2642 298.527 27.2642ZM294.845 19.3125C294.947 17.4545 296.294 15.8438 298.365 15.8438C300.342 15.8438 301.638 17.3097 301.646 19.3125H294.845ZM309.519 9.54545H306.971V27H309.519V9.54545ZM318.462 27.2642C321.555 27.2642 323.558 25.4062 323.839 22.858H321.359C321.036 24.2727 319.936 25.108 318.479 25.108C316.322 25.108 314.933 23.3097 314.933 20.4545C314.933 17.6506 316.348 15.8864 318.479 15.8864C320.098 15.8864 321.087 16.9091 321.359 18.1364H323.839C323.567 15.4943 321.411 13.7386 318.436 13.7386C314.746 13.7386 312.359 16.517 312.359 20.5142C312.359 24.4602 314.661 27.2642 318.462 27.2642ZM332.079 27.2642C335.769 27.2642 338.181 24.5625 338.181 20.5142C338.181 16.4403 335.769 13.7386 332.079 13.7386C328.388 13.7386 325.977 16.4403 325.977 20.5142C325.977 24.5625 328.388 27.2642 332.079 27.2642ZM332.087 25.125C329.675 25.125 328.55 23.0199 328.55 20.5057C328.55 18 329.675 15.8693 332.087 15.8693C334.482 15.8693 335.607 18 335.607 20.5057C335.607 23.0199 334.482 25.125 332.087 25.125ZM341.026 27H343.574V18.929C343.574 17.1648 344.81 15.9375 346.259 15.9375C347.673 15.9375 348.653 16.875 348.653 18.2983V27H351.193V18.6562C351.193 17.0795 352.156 15.9375 353.818 15.9375C355.165 15.9375 356.273 16.6875 356.273 18.4602V27H358.821V18.2216C358.821 15.2301 357.151 13.7386 354.781 13.7386C352.898 13.7386 351.483 14.642 350.852 16.0398H350.716C350.145 14.608 348.943 13.7386 347.196 13.7386C345.466 13.7386 344.179 14.5994 343.634 16.0398H343.472V13.9091H341.026V27ZM367.879 27.2642C370.734 27.2642 372.754 25.858 373.333 23.7273L370.921 23.2926C370.461 24.5284 369.353 25.1591 367.904 25.1591C365.722 25.1591 364.256 23.7443 364.188 21.2216H373.495V20.3182C373.495 15.5881 370.665 13.7386 367.7 13.7386C364.052 13.7386 361.648 16.517 361.648 20.5398C361.648 24.6051 364.018 27.2642 367.879 27.2642ZM364.197 19.3125C364.299 17.4545 365.646 15.8438 367.717 15.8438C369.694 15.8438 370.989 17.3097 370.998 19.3125H364.197Z" fill="white"/>
</svg>
